<?xml version="1.0" encoding="utf-8"?>
<!-- Generator: Adobe Illustrator 26.0.0, SVG Export Plug-In . SVG Version: 6.00 Build 0)  -->
<svg version="1.1" id="Layer_1" xmlns="http://www.w3.org/2000/svg" xmlns:xlink="http://www.w3.org/1999/xlink" x="0px" y="0px"
	 viewBox="0 0 959.05 317.11" style="enable-background:new 0 0 959.05 317.11;" xml:space="preserve">
<style type="text/css">
	.st0{fill:#FFFFFF;}
	.st1{fill:#F9CC03;}
</style>
<g>
	<g>
		<path class="st0" d="M367.72,143.89c0,24.21-0.25,48.42,0.16,72.63c0.12,7.1-1.31,10.81-9.16,9.49c-2.14-0.36-4.43-0.32-6.59-0.01
			c-6.58,0.95-8.46-1.61-8.41-8.26c0.32-37.75,0.07-75.5,0.3-113.24c0.02-3.5-2.95-9.93,2.84-10.17c6.72-0.28,15-4.6,20.32,4.37
			c14.56,24.59,29.38,49.03,44.11,73.51c1.57,2.6,3.21,5.16,5.33,8.57c15.77-26.83,31.03-52.79,46.3-78.75
			c4.58-7.79,13.62-10.96,22.27-8.24c3.01,0.95,2.79,3.02,2.79,5.14c0.15,40.58,0.22,81.15,0.43,121.73
			c0.02,4.17-1.72,5.12-5.62,5.39c-18.04,1.26-18.01,1.39-18.03-16.46c-0.03-21.39-0.08-42.78-0.14-64.17c0-0.9-0.22-1.8-0.68-5.3
			c-16.47,28.04-31.87,54.26-47.79,81.38c-15.85-26.63-31.16-52.37-46.48-78.12C369.03,143.55,368.37,143.72,367.72,143.89z"/>
		<path class="st0" d="M298.3,128.99c-15.21-14.14-31.35-17.63-48.93-13.77c-24.57,5.39-38.49,27.04-34.52,52.6
			c3.69,23.81,24.5,39.91,49.44,38.23c0.94-0.06,1.88-0.2,2.82-0.3c20.34-2.2,21.54-3.53,21.54-23.92c0-4.09,0.57-8.28-0.11-12.25
			c-1.74-10.09,2.91-11.48,11.91-11.77c9.94-0.32,12.3,2.86,11.65,12.14c-0.82,11.58-0.46,23.28-0.07,34.91
			c0.17,5.15-1.81,8.11-6.06,10.53c-24.42,13.93-49.96,16.8-76.16,6.42c-27.37-10.85-43.47-38.73-40.48-68.03
			c3.18-31.16,24.53-54.47,54.96-60.16c16.17-3.03,31.88-1.69,47.3,4.12c5.13,1.93,7.39,4.8,6.86,10.52
			C297.86,114.39,298.3,120.62,298.3,128.99z"/>
		<path class="st0" d="M17.66,193.23c15.04,9.65,30.27,14.63,47.09,13.86c5.39-0.25,10.63-1.07,15.57-3.28
			c5.55-2.47,9.39-6.45,9.8-12.74c0.43-6.51-3.5-10.49-8.8-13.3c-8.44-4.48-17.84-5.95-26.95-8.26c-7.93-2.01-15.83-4.05-23.17-7.75
			c-23.04-11.61-26.32-41.47-6.37-57.91c19.03-15.68,53.62-13.87,73.07-5.77c2.77,1.15,3.43,3.24,3.37,6.02
			c-0.13,5.65-0.04,11.3-0.04,17.94c-9.34-3.03-17.64-7.49-26.97-8.68c-8.87-1.14-17.58-1.13-26.05,1.93
			c-6.71,2.42-11.4,7.01-11.74,14.44c-0.34,7.35,4.56,11.75,10.74,13.93c8.86,3.12,18.09,5.17,27.11,7.88
			c6.6,1.98,13.3,3.84,19.62,6.53c12.23,5.2,19.85,14.33,20.57,27.99c0.74,14-4.76,25.31-16.8,32.63
			c-19,11.54-39.64,10.83-60.32,6.29C17.16,220.5,17.24,220.14,17.66,193.23z"/>
		<path class="st0" d="M647.86,225.94c-7.64,0-14.47-0.26-21.26,0.08c-5.34,0.27-5.85-3.77-7.28-7.07
			c-13.69-31.7-27.33-63.42-40.99-95.14c-0.44-1.03-0.91-2.05-2.06-4.64c-5.92,13.69-11.25,25.94-16.51,38.22
			c-8.52,19.92-17.33,39.72-25.28,59.86c-2.81,7.11-6.61,9.73-13.97,8.79c-4.59-0.59-9.32-0.11-13.64-0.11
			c-1.51-3.13,0.26-4.92,1.12-6.83c17.61-39.24,35.48-78.37,52.73-117.76c2.87-6.55,6.64-8.33,12.9-7.55
			c6.81,0.85,14.16-2.82,18.6,7.46c17.18,39.76,35.47,79.05,53.32,118.52C646.29,221.43,646.84,223.19,647.86,225.94z"/>
		<path class="st0" d="M138.41,159.74c0-19.17,0.25-38.34-0.14-57.49c-0.13-6.38,1.36-8.73,8.23-8.63
			c16.71,0.26,16.72-0.1,16.72,16.92c0,35.5-0.16,71.01,0.14,106.51c0.06,6.68-1.18,9.34-8.66,9.11
			c-16.28-0.5-16.29-0.04-16.29-16.46C138.41,193.05,138.41,176.4,138.41,159.74z"/>
		<path class="st1" d="M415.53,126.89c5-8.66,9.76-15.7,13.28-23.31c3.88-8.37,9.24-12.17,19.5-8.73
			c-10.67,18.56-21.32,37.09-32.73,56.94c-11.26-19.48-21.94-37.95-32.87-56.84c9.45-3.11,15.2-0.74,19.16,7.92
			C405.48,110.74,410.41,118.02,415.53,126.89z"/>
		<path class="st0" d="M415.46,108.58c-3.09-5.3-5.47-9.38-8.33-14.29c6.06,0,10.77,0,16.79,0
			C420.96,99.28,418.56,103.33,415.46,108.58z"/>
	</g>
</g>
<g>
	<path class="st0" d="M872.07,159.99c-47.35-27.32-93.32-53.8-139.24-80.37c-9.5-5.49-22.38-9.24-27.2-17.56
		c-4.81-8.31-1.49-21.34-1.68-32.3c-0.08-4.99-0.01-9.99-0.01-16.95c85.32,49.23,169.47,97.78,255.1,147.18
		c-85.18,49.17-169.33,97.74-255.13,147.26c0-16.62-0.03-31.86,0.02-47.11c0.01-4.93,4.54-5.63,7.59-7.4
		c51.13-29.63,102.32-59.15,153.49-88.69C866.9,162.97,868.78,161.89,872.07,159.99z"/>
	<path class="st0" d="M946.32,110.44c-52.9-30.52-104.39-60.23-156-90.01c2.16-3.33,4.93-1.78,7.13-1.79
		c46.55-0.1,93.1,0.08,139.64-0.24c7.38-0.05,9.56,1.8,9.42,9.39C946.02,54.7,946.32,81.64,946.32,110.44z"/>
	<path class="st0" d="M790.22,299.67c51.7-29.84,103.02-59.47,153.99-88.89c3.12,1.34,2.06,3.52,2.06,5.17
		c0.07,26.1-0.06,52.2,0.15,78.29c0.04,5.02-0.92,7.29-6.63,7.26c-49.36-0.23-98.72-0.18-148.08-0.25
		C791.52,301.25,791.33,300.87,790.22,299.67z"/>
	<path class="st1" d="M703.93,86.59c43.07,24.86,84.55,48.8,127.2,73.42c-42.71,24.64-84.19,48.58-127.24,73.42
		c0-10.38,0-19.34,0-28.31c0-4.06,3.48-4.9,6.08-6.4c19.31-11.19,38.66-22.3,57.98-33.45c2.61-1.51,5.17-3.09,8.91-5.33
		c-21.74-12.53-42.14-24.75-63.02-36.1c-7.59-4.12-11.21-8.81-10.05-17.58C704.55,100.43,703.93,94.42,703.93,86.59z"/>
	<path class="st0" d="M704.18,178.62c0-12.94,0-24.11,0-37.08c10.5,6.21,20.2,11.94,31.41,18.57
		C724.89,166.42,715.21,172.12,704.18,178.62z"/>
</g>
</svg>
